<?xml version="1.0" encoding="utf-8"?>
<!-- Generator: Adobe Illustrator 21.0.0, SVG Export Plug-In . SVG Version: 6.00 Build 0)  -->
<svg version="1.1" id="Layer_4" xmlns="http://www.w3.org/2000/svg" xmlns:xlink="http://www.w3.org/1999/xlink" x="0px" y="0px"
	 viewBox="0 0 248.3 40.3" style="enable-background:new 0 0 248.3 40.3;" xml:space="preserve">
<style type="text/css">
	.st0{fill:#FFFFFF;}
	.st1{fill:#2A2A29;}
	.st2{fill:#B0B0B0;}
	.st3{fill:#262625;}
	.st4{fill:#262524;}
	.st5{fill:#242423;}
	.st6{fill:none;}
</style>
<title>9PS24map8am-click</title>
<rect y="0" class="st0" width="248.3" height="40.3"/>
<path class="st1" d="M55.4,14.7c0.9-0.6,2-0.6,2.9-0.2c0.6,0.3,1,0.7,1.2,1.3c0.1,0.3,0.2,0.3,0.5,0.2c1.3-0.7,3-0.3,3.7,1
	c0.1,0.1,0.1,0.3,0.2,0.4c0,0.2,0.1,0.3,0.3,0.1c1.2-0.7,2.7-0.2,3.4,1c0.2,0.4,0.3,0.8,0.3,1.2c0.1,3,0.1,6-0.2,9
	c-0.1,0.9-0.2,1.8-0.3,2.8c-0.4,2.1-2.2,3.7-4.4,3.7c-3.1,0-6.1,0-9.2,0c-1.8,0-3.4-1-4.1-2.5c-0.8-1.6-1.9-3.1-3.3-4.3
	c-0.7-0.6-1.5-1.1-2.3-1.5c-0.8-0.3-1.2-1.1-1.2-1.9c0-0.8,0.5-1.5,1.2-1.8c0.4-0.2,0.9-0.4,1.4-0.4c1.4-0.1,2.8,0.1,4,0.7
	c0.4,0.2,0.4,0.1,0.4-0.3c0-4.4,0-8.8,0-13.1c0-1.4,0.9-2.5,2.3-2.8c1.5-0.2,2.8,0.8,3.1,2.2c0,0.2,0,0.3,0,0.5
	C55.4,11.4,55.4,13,55.4,14.7z"/>
<path class="st2" d="M52.6,2.1c3.8,0,7,2.6,7.8,6.3c0.4,1.9,0,3.9-1,5.6c-0.1,0.2-0.3,0.3-0.5,0.1s-0.8-0.1-0.4-0.7
	c0.4-0.6,0.7-1.3,0.8-2.1C60.1,7.6,57.7,4,54,3.2c-0.1,0-0.2,0-0.4-0.1c-2.9-0.4-5.7,1.1-7.1,3.7c-1.5,3.1-0.5,6.8,2.3,8.7
	c0.4,0.3,0.6,0.8,0.4,1.3c-0.1,0.2-0.2,0.1-0.3,0c-2.2-1.1-3.7-3.2-4.1-5.6c-0.7-4.1,1.9-8.1,6-9C51.5,2.1,52,2,52.6,2.1z"/>
<path class="st2" d="M56,13.3c0-0.8,0-1.5,0.2-2.2c0.7-2-0.4-4.1-2.3-4.8c-2-0.7-4.1,0.4-4.8,2.3c-0.3,0.8-0.3,1.7,0,2.5
	c0.2,0.7,0.3,1.4,0.2,2.1c-0.8-0.4-1.7-2.3-1.5-3.9c0.2-2.1,1.8-3.9,3.9-4.3C53.9,4.7,56,5.8,57,7.7C57.9,9.6,57.6,11.9,56,13.3z"/>
<path class="st0" d="M64.1,19.6c0.1-0.1,0.1-0.3,0.2-0.5c0.2-0.5,0.7-0.8,1.2-0.8c0.6,0,1.1,0.4,1.2,1c0.2,0.6,0.2,1.3,0.2,1.9
	c0.1,3.3-0.1,6.6-0.5,9.9c-0.2,1.6-1.5,2.8-3.2,2.9c-3.1,0-6.3,0-9.4,0c-1.3,0-2.5-0.7-3-1.9c-1-2.1-2.5-3.9-4.3-5.3
	c-0.5-0.4-1.1-0.7-1.6-1c-0.4-0.1-0.6-0.5-0.6-0.9c0-0.4,0.3-0.6,0.6-0.8c0.4-0.2,0.9-0.3,1.4-0.3c1.4,0,2.9,0.4,4,1.3
	c0.4,0.3,0.7,0.2,0.9-0.2c0-0.2,0-0.3,0-0.5c0-4.7,0-9.4,0-14.1c0-0.2-0.1-0.3,0.1-0.5c0.1-0.3,0.2-0.6,0.3-0.8
	c0.4-0.5,1-0.8,1.6-0.6c0.6,0.2,1.1,0.8,1.1,1.5c0,0.9,0,1.8,0,2.7c0,0.1,0,0.3,0,0.4s0.1,0.2,0.1,0.3c0,1.8,0,3.5,0,5.3
	c0,0.1,0,0.2,0,0.2c0,0.6,0,1.2,0,1.7c0,0.4,0.2,0.6,0.6,0.6s0.6-0.3,0.6-0.7c0-1.2,0-2.4,0-3.5c-0.1-0.8,0.6-1.6,1.4-1.7
	c0.8-0.1,1.6,0.6,1.7,1.4c0,0.1,0,0.2,0,0.2c0,1.3,0,2.5,0,3.8c0,0.5,0.2,0.7,0.6,0.7s0.6-0.2,0.6-0.7c0-0.8,0-1.6,0-2.4
	c0-0.8,0.7-1.5,1.5-1.5c0.8,0,1.5,0.7,1.5,1.5c0,0.9,0,1.9,0,2.8c0,0.3,0.2,0.6,0.5,0.6c0,0,0.1,0,0.1,0c0.3,0,0.6-0.1,0.6-0.5
	C64,20.7,64,20.2,64.1,19.6z"/>
<path class="st3" d="M51.1,9.8c0,5,0,9.9,0,14.9c0,0.1,0,0.1,0,0.2c-0.1-0.1-0.1-0.3-0.1-0.4c0-4.8,0-9.6,0-14.4
	C51,10,51,9.9,51.1,9.8L51.1,9.8L51.1,9.8z"/>
<path class="st4" d="M54.3,18.7v-5.9c0.1-0.1,0.1,0,0.1,0.1c0,1.9,0,3.7,0,5.6C54.4,18.6,54.4,18.6,54.3,18.7z"/>
<path class="st5" d="M64.1,19.6c0,0.6,0,1.1,0,1.7C64,20.8,63.9,20.2,64.1,19.6L64.1,19.6L64.1,19.6z"/>
<g>
	<rect x="81.8" y="8.1" class="st6" width="142.9" height="35.7"/>
	<path d="M85,32.9V8.7h10c1,0,2,0.2,2.8,0.6c0.9,0.4,1.6,1,2.2,1.7c0.6,0.7,1.1,1.5,1.5,2.4c0.4,0.9,0.5,1.8,0.5,2.7
		c0,0.9-0.1,1.7-0.4,2.6c-0.3,0.8-0.7,1.6-1.2,2.2c-0.5,0.7-1.1,1.2-1.8,1.6c-0.7,0.4-1.5,0.7-2.3,0.9l6,9.4h-2l-5.8-9.1h-7.8v9.1
		H85z M86.7,22.2h8.5c0.8,0,1.5-0.2,2.1-0.5c0.6-0.3,1.2-0.8,1.6-1.3c0.5-0.6,0.8-1.2,1-1.9c0.2-0.7,0.4-1.4,0.4-2.2
		c0-0.8-0.1-1.5-0.4-2.2c-0.3-0.7-0.7-1.3-1.2-1.9c-0.5-0.5-1.1-1-1.7-1.3c-0.6-0.3-1.3-0.5-2.1-0.5h-8.2V22.2z"/>
	<path d="M123.1,31.3v1.6h-16.1V8.7h15.8v1.6h-14v9.5h12.3v1.5h-12.3v10H123.1z"/>
	<path d="M125.7,31.4l17.2-21.1H126V8.7h19v1.4l-17,21.1h17v1.6h-19.1V31.4z"/>
	<path d="M167,20.1v1.4h-4.4v4.8H161v-4.8h-4.5v-1.4h4.5v-4.8h1.6v4.8H167z"/>
	<path d="M179.2,24.9c1.5,0.3,2.8,0.9,3.7,2.1c0.9,1.1,1.4,2.5,1.4,4.2c0,1-0.2,1.9-0.6,2.8s-0.9,1.5-1.6,2.1
		c-0.7,0.6-1.5,1-2.4,1.4c-0.9,0.3-2,0.5-3.1,0.5c-1.7,0-3.2-0.4-4.5-1.1c-1.3-0.7-2.2-1.7-2.8-3l1.3-1c0.5,1.1,1.2,1.9,2.2,2.6
		c1,0.6,2.3,1,3.8,1c1.8,0,3.2-0.5,4.3-1.4c1-0.9,1.6-2.2,1.6-3.9s-0.5-3-1.6-3.9c-1.1-1-2.6-1.5-4.6-1.5h-0.8v-1.5h0.9
		c1.8,0,3.2-0.4,4.2-1.2c1-0.8,1.5-1.9,1.5-3.3c0-0.7-0.1-1.4-0.4-2c-0.3-0.6-0.6-1.1-1.1-1.5c-0.5-0.4-1-0.7-1.7-0.9
		c-0.7-0.2-1.4-0.3-2.1-0.3c-1.4,0-2.5,0.3-3.6,0.9c-1,0.6-1.8,1.5-2.2,2.5l-1.2-1c0.3-0.6,0.6-1.2,1.1-1.7c0.5-0.5,1-0.9,1.6-1.3
		c0.6-0.4,1.3-0.6,2-0.8s1.5-0.3,2.3-0.3c1,0,2,0.1,2.8,0.4c0.9,0.3,1.6,0.7,2.2,1.3s1.1,1.2,1.5,1.9s0.5,1.6,0.5,2.5
		c0,0.7-0.1,1.4-0.3,2c-0.2,0.6-0.5,1.2-0.9,1.6c-0.4,0.5-0.9,0.9-1.5,1.2C180.5,24.6,179.9,24.8,179.2,24.9z"/>
</g>
</svg>
